# This file uses centimeters as units for non-parametric coordinates.

mtllib metalPart.mtl
g default
v -1.970392 1.354589 -0.944191
v -1.982130 1.383293 -0.975172
v -1.997253 1.422843 -0.986512
v -2.011707 1.462643 -0.975172
v -2.021621 1.492028 -0.944191
v -2.024337 1.503123 -0.901870
v -2.019128 1.492957 -0.859549
v -2.007390 1.464252 -0.828568
v -1.992267 1.424702 -0.817228
v -1.977812 1.384902 -0.828568
v -1.967899 1.355518 -0.859549
v -1.965183 1.344422 -0.901870
v 3.236871 3.336578 -1.097116
v 3.231283 3.350244 -1.111866
v 3.224083 3.369073 -1.117265
v 3.217201 3.388022 -1.111866
v 3.212482 3.402011 -1.097116
v 3.211188 3.407293 -1.076968
v 3.213668 3.402454 -1.056819
v 3.219257 3.388788 -1.042070
v 3.226456 3.369959 -1.036671
v 3.233338 3.351010 -1.042070
v 3.238058 3.337021 -1.056820
v 3.239351 3.331738 -1.076968
v -1.994760 1.423773 -0.901870
v 3.225996 3.369787 -1.076992
v 1.983204 2.835586 -1.072931
v 1.972562 2.861608 -1.101018
v 1.958852 2.897464 -1.111298
v 1.945748 2.933546 -1.101018
v 1.936760 2.960185 -1.072931
v 1.934298 2.970244 -1.034564
v 1.939020 2.961028 -0.996196
v 1.949662 2.935005 -0.968109
v 1.963372 2.899149 -0.957829
v 1.976476 2.863068 -0.968109
v 1.985464 2.836428 -0.996196
v 1.987927 2.826369 -1.034564
v 1.995104 2.854371 -1.065721
v 1.998871 2.847019 -1.035113
v 1.996907 2.855043 -1.004505
v 1.989737 2.876295 -0.982098
v 1.979282 2.905080 -0.973897
v 1.968345 2.933684 -0.982098
v 1.959855 2.954444 -1.004505
v 1.956088 2.961797 -1.035113
v 1.958053 2.953772 -1.065721
v 1.965222 2.932520 -1.088127
v 1.975677 2.903736 -1.096329
v 1.986614 2.875131 -1.088127
v 2.349738 3.001896 -1.069484
v 2.352485 2.996535 -1.047168
v 2.351052 3.002386 -1.024853
v 2.345825 3.017879 -1.008517
v 2.338203 3.038866 -1.002537
v 2.330229 3.059721 -1.008517
v 2.324039 3.074856 -1.024853
v 2.321292 3.080217 -1.047168
v 2.322725 3.074366 -1.069484
v 2.327952 3.058872 -1.085820
v 2.335574 3.037886 -1.091800
v 2.343548 3.017031 -1.085820
v 2.347763 2.993985 -1.073222
v 2.340497 3.011751 -1.092398
v 2.331137 3.036232 -1.099417
v 2.322190 3.060866 -1.092398
v 2.316054 3.079054 -1.073222
v 2.314373 3.085922 -1.047027
v 2.317597 3.079630 -1.020832
v 2.324862 3.061862 -1.001656
v 2.334223 3.037382 -0.994637
v 2.343170 3.012747 -1.001656
v 2.349306 2.994560 -1.020832
v 2.350987 2.987692 -1.047027
vt 0.828475 0.202226
vt 0.828390 0.198891
vt 0.830364 0.201225
vt 0.830270 0.198243
vt 0.828313 0.195571
vt 0.830192 0.195162
vt 0.828245 0.192262
vt 0.830127 0.192022
vt 0.828183 0.188959
vt 0.830072 0.188850
vt 0.828130 0.185658
vt 0.830027 0.185662
vt 0.828082 0.182358
vt 0.829992 0.182472
vt 0.828041 0.179055
vt 0.829970 0.179294
vt 0.828004 0.175747
vt 0.829966 0.176145
vt 0.827970 0.172428
vt 0.829992 0.173052
vt 0.827936 0.169093
vt 0.830068 0.170060
vt 0.827895 0.165732
vt 0.830484 0.204037
vt 0.847098 0.160239
vt 0.844430 0.157643
vt 0.850608 0.153962
vt 0.850706 0.161153
vt 0.854289 0.160140
vt 0.856884 0.157472
vt 0.857798 0.153863
vt 0.856786 0.150281
vt 0.854118 0.147685
vt 0.850509 0.146771
vt 0.846927 0.147784
vt 0.844331 0.150452
vt 0.843417 0.154061
vt 0.832339 0.152238
vt 0.833609 0.153474
vt 0.830668 0.155227
vt 0.834091 0.155180
vt 0.833656 0.156898
vt 0.832421 0.158168
vt 0.830715 0.158650
vt 0.828997 0.158215
vt 0.827726 0.156980
vt 0.827244 0.155274
vt 0.827679 0.153556
vt 0.828915 0.152285
vt 0.830621 0.151803
vt 0.469630 0.211623
vt 0.469535 0.207898
vt 0.469442 0.204173
vt 0.469354 0.200448
vt 0.469269 0.196722
vt 0.469189 0.192997
vt 0.469111 0.189272
vt 0.469038 0.185546
vt 0.468968 0.181821
vt 0.468902 0.178095
vt 0.468839 0.174370
vt 0.468780 0.170644
vt 0.861830 0.199389
vt 0.861815 0.197153
vt 0.862395 0.198880
vt 0.862497 0.196889
vt 0.863014 0.175954
vt 0.863751 0.176331
vt 0.862826 0.178111
vt 0.863580 0.178354
vt 0.862659 0.180235
vt 0.863420 0.180399
vt 0.862508 0.182345
vt 0.863271 0.182459
vt 0.862371 0.184450
vt 0.863133 0.184527
vt 0.862246 0.186554
vt 0.863006 0.186600
vt 0.862131 0.188658
vt 0.862890 0.188673
vt 0.862028 0.190764
vt 0.862782 0.190744
vt 0.861936 0.192873
vt 0.862683 0.192807
vt 0.861861 0.194996
vt 0.862589 0.194859
vt 0.942717 0.203234
vt 0.942830 0.201464
vt 0.944186 0.183767
vt 0.944031 0.185535
vt 0.943880 0.187303
vt 0.943734 0.189071
vt 0.943592 0.190841
vt 0.943455 0.192610
vt 0.943322 0.194380
vt 0.943192 0.196151
vt 0.943068 0.197922
vt 0.942947 0.199693
vt 0.468724 0.166918
vt 0.828566 0.205586
vt 0.830234 0.167248
vt 0.863233 0.173723
vt 0.863930 0.174346
vt 0.942609 0.205005
vn 0.230528 -0.668699 -0.706893
vn 0.230198 -0.668824 -0.706883
vn 0.298297 -0.641157 -0.707062
vn 0.298297 -0.641157 -0.707062
vn 0.230198 -0.668824 -0.706883
vn 0.294624 -0.642756 -0.707150
vn 0.066336 -0.251484 -0.965585
vn 0.066005 -0.251608 -0.965576
vn 0.134603 -0.225205 -0.964969
vn 0.134603 -0.225205 -0.964969
vn 0.066005 -0.251608 -0.965576
vn 0.130879 -0.226679 -0.965136
vn -0.114457 0.233547 -0.965586
vn -0.114788 0.233423 -0.965576
vn -0.045646 0.258364 -0.964969
vn -0.045646 0.258364 -0.964969
vn -0.114788 0.233423 -0.965576
vn -0.049425 0.257039 -0.965136
vn -0.263411 0.656440 -0.706895
vn -0.263743 0.656318 -0.706885
vn -0.194150 0.679977 -0.707062
vn -0.194150 0.679977 -0.707062
vn -0.263743 0.656318 -0.706885
vn -0.197974 0.678779 -0.707153
vn -0.340612 0.903874 -0.258836
vn -0.340943 0.903752 -0.258826
vn -0.271118 0.926666 -0.260355
vn -0.271118 0.926666 -0.260355
vn -0.340943 0.903752 -0.258826
vn -0.274966 0.925547 -0.260300
vn -0.325374 0.909553 0.258543
vn -0.325705 0.909431 0.258555
vn -0.255925 0.932328 0.255474
vn -0.255925 0.932328 0.255474
vn -0.325705 0.909431 0.258555
vn -0.259771 0.931212 0.255664
vn -0.221781 0.671956 0.706603
vn -0.222113 0.671835 0.706615
vn -0.152646 0.695447 0.702177
vn -0.152646 0.695447 0.702177
vn -0.222113 0.671835 0.706615
vn -0.156456 0.694252 0.702521
vn -0.057590 0.254744 0.965292
vn -0.057921 0.254621 0.965305
vn 0.011048 0.279501 0.960082
vn 0.011048 0.279501 0.960082
vn -0.057921 0.254621 0.965305
vn 0.007285 0.278182 0.960501
vn 0.123204 -0.230288 0.965292
vn 0.122873 -0.230413 0.965304
vn 0.191297 -0.204073 0.960083
vn 0.191297 -0.204073 0.960083
vn 0.122873 -0.230413 0.965304
vn 0.187591 -0.205540 0.960501
vn 0.272157 -0.653178 0.706604
vn 0.271826 -0.653302 0.706617
vn 0.339803 -0.625690 0.702172
vn 0.339803 -0.625690 0.702172
vn 0.271826 -0.653302 0.706617
vn 0.336140 -0.627284 0.702513
vn 0.349358 -0.900614 0.258541
vn 0.349027 -0.900739 0.258552
vn 0.416769 -0.872376 0.255469
vn 0.416769 -0.872376 0.255469
vn 0.349027 -0.900739 0.258552
vn 0.413132 -0.874046 0.255668
vn 0.334120 -0.906293 -0.258837
vn 0.333790 -0.906418 -0.258826
vn 0.401579 -0.878039 -0.260351
vn 0.401579 -0.878039 -0.260351
vn 0.333790 -0.906418 -0.258826
vn 0.397935 -0.879711 -0.260301
vn -0.936560 -0.349098 0.031414
vn -0.936560 -0.349098 0.031414
vn -0.936560 -0.349097 0.031416
vn -0.936561 -0.349095 0.031415
vn -0.936560 -0.349098 0.031414
vn -0.936560 -0.349097 0.031416
vn -0.936561 -0.349094 0.031415
vn -0.936561 -0.349095 0.031415
vn -0.936560 -0.349097 0.031416
vn -0.936560 -0.349097 0.031408
vn -0.936561 -0.349094 0.031415
vn -0.936560 -0.349097 0.031416
vn -0.936560 -0.349098 0.031415
vn -0.936560 -0.349097 0.031408
vn -0.936560 -0.349097 0.031416
vn -0.936560 -0.349097 0.031423
vn -0.936560 -0.349098 0.031415
vn -0.936560 -0.349097 0.031416
vn -0.936560 -0.349097 0.031415
vn -0.936560 -0.349097 0.031423
vn -0.936560 -0.349097 0.031416
vn -0.936561 -0.349095 0.031419
vn -0.936560 -0.349097 0.031415
vn -0.936560 -0.349097 0.031416
vn -0.936561 -0.349095 0.031419
vn -0.936561 -0.349095 0.031419
vn -0.936560 -0.349097 0.031416
vn -0.936560 -0.349098 0.031415
vn -0.936561 -0.349095 0.031419
vn -0.936560 -0.349097 0.031416
vn -0.936560 -0.349098 0.031415
vn -0.936560 -0.349098 0.031415
vn -0.936560 -0.349097 0.031416
vn -0.936560 -0.349098 0.031414
vn -0.936560 -0.349098 0.031415
vn -0.936560 -0.349097 0.031416
vn 0.941923 0.333313 -0.041037
vn 0.939255 0.339839 -0.048064
vn 0.936560 0.349097 -0.031425
vn 0.939255 0.339839 -0.048064
vn 0.935819 0.348822 -0.050657
vn 0.936560 0.349097 -0.031425
vn 0.935819 0.348822 -0.050657
vn 0.932541 0.357850 -0.048071
vn 0.936560 0.349097 -0.031425
vn 0.932541 0.357850 -0.048071
vn 0.930287 0.364531 -0.041022
vn 0.936560 0.349097 -0.031425
vn 0.930287 0.364531 -0.041022
vn 0.929668 0.367057 -0.031410
vn 0.936560 0.349097 -0.031425
vn 0.929668 0.367057 -0.031410
vn 0.930848 0.364757 -0.021798
vn 0.936560 0.349097 -0.031425
vn 0.930848 0.364757 -0.021798
vn 0.933516 0.358231 -0.014771
vn 0.936560 0.349097 -0.031425
vn 0.933516 0.358231 -0.014771
vn 0.936952 0.349245 -0.012196
vn 0.936560 0.349097 -0.031425
vn 0.936952 0.349245 -0.012196
vn 0.940234 0.340209 -0.014766
vn 0.936560 0.349097 -0.031425
vn 0.940234 0.340209 -0.014766
vn 0.942488 0.333527 -0.021805
vn 0.936560 0.349097 -0.031425
vn 0.942488 0.333527 -0.021805
vn 0.943104 0.331010 -0.031433
vn 0.936560 0.349097 -0.031425
vn 0.943104 0.331010 -0.031433
vn 0.941923 0.333313 -0.041037
vn 0.936560 0.349097 -0.031425
vn 0.227851 -0.669701 -0.706813
vn 0.227851 -0.669701 -0.706813
vn 0.230528 -0.668699 -0.706893
vn 0.230528 -0.668699 -0.706893
vn 0.227851 -0.669701 -0.706813
vn 0.230198 -0.668824 -0.706883
vn 0.063658 -0.252486 -0.965504
vn 0.063658 -0.252486 -0.965504
vn 0.066336 -0.251484 -0.965585
vn 0.066336 -0.251484 -0.965585
vn 0.063658 -0.252486 -0.965504
vn 0.066005 -0.251608 -0.965576
vn -0.117138 0.232552 -0.965504
vn -0.117137 0.232552 -0.965504
vn -0.114457 0.233547 -0.965586
vn -0.114457 0.233547 -0.965586
vn -0.117137 0.232552 -0.965504
vn -0.114788 0.233423 -0.965576
vn -0.266092 0.655446 -0.706813
vn -0.266092 0.655447 -0.706813
vn -0.263411 0.656440 -0.706895
vn -0.263411 0.656440 -0.706895
vn -0.266092 0.655447 -0.706813
vn -0.263743 0.656318 -0.706885
vn -0.343294 0.902884 -0.258747
vn -0.343294 0.902884 -0.258747
vn -0.340612 0.903874 -0.258836
vn -0.340612 0.903874 -0.258836
vn -0.343294 0.902884 -0.258747
vn -0.340943 0.903752 -0.258826
vn -0.328056 0.908564 0.258633
vn -0.328056 0.908564 0.258634
vn -0.325374 0.909553 0.258543
vn -0.325374 0.909553 0.258543
vn -0.328056 0.908564 0.258634
vn -0.325705 0.909431 0.258555
vn -0.224461 0.670962 0.706701
vn -0.224461 0.670962 0.706701
vn -0.221781 0.671956 0.706603
vn -0.221781 0.671956 0.706603
vn -0.224461 0.670962 0.706701
vn -0.222113 0.671835 0.706615
vn -0.060270 0.253749 0.965391
vn -0.060270 0.253749 0.965391
vn -0.057590 0.254744 0.965292
vn -0.057590 0.254744 0.965292
vn -0.060270 0.253749 0.965391
vn -0.057921 0.254621 0.965305
vn 0.120525 -0.231287 0.965391
vn 0.120525 -0.231287 0.965391
vn 0.123204 -0.230288 0.965292
vn 0.123204 -0.230288 0.965292
vn 0.120525 -0.231287 0.965391
vn 0.122873 -0.230413 0.965304
vn 0.269481 -0.654185 0.706698
vn 0.269481 -0.654184 0.706698
vn 0.272157 -0.653178 0.706604
vn 0.272157 -0.653178 0.706604
vn 0.269481 -0.654184 0.706698
vn 0.271826 -0.653302 0.706617
vn 0.346682 -0.901620 0.258637
vn 0.346682 -0.901620 0.258636
vn 0.349358 -0.900614 0.258541
vn 0.349358 -0.900614 0.258541
vn 0.346682 -0.901620 0.258636
vn 0.349027 -0.900739 0.258552
vn 0.331444 -0.907300 -0.258750
vn 0.331444 -0.907300 -0.258750
vn 0.334120 -0.906293 -0.258837
vn 0.334120 -0.906293 -0.258837
vn 0.331444 -0.907300 -0.258750
vn 0.333790 -0.906418 -0.258826
vn 0.362887 -0.894929 -0.259645
vn 0.362793 -0.894969 -0.259639
vn 0.343883 -0.902549 -0.259132
vn 0.343883 -0.902549 -0.259132
vn 0.362793 -0.894969 -0.259639
vn 0.342938 -0.902916 -0.259108
vn 0.378114 -0.889252 0.257410
vn 0.378022 -0.889292 0.257408
vn 0.359119 -0.896870 0.258181
vn 0.359119 -0.896870 0.258181
vn 0.378022 -0.889292 0.257408
vn 0.358174 -0.897236 0.258224
vn 0.300962 -0.641974 0.705189
vn 0.300868 -0.642010 0.705196
vn 0.281927 -0.649464 0.706196
vn 0.281927 -0.649464 0.706196
vn 0.300868 -0.642010 0.705196
vn 0.280982 -0.649827 0.706239
vn 0.152101 -0.219346 0.963718
vn 0.152008 -0.219384 0.963724
vn 0.132987 -0.226610 0.964864
vn 0.132987 -0.226610 0.964864
vn 0.152008 -0.219384 0.963724
vn 0.132040 -0.226968 0.964910
vn -0.028582 0.265391 0.963717
vn -0.028676 0.265355 0.963724
vn -0.047786 0.258367 0.964864
vn -0.047786 0.258367 0.964864
vn -0.028676 0.265355 0.963724
vn -0.048737 0.258019 0.964910
vn -0.192668 0.682333 0.705195
vn -0.192762 0.682297 0.705205
vn -0.211960 0.675537 0.706204
vn -0.211960 0.675537 0.706204
vn -0.192762 0.682297 0.705205
vn -0.212913 0.675192 0.706246
vn -0.296197 0.919786 0.257411
vn -0.296296 0.919758 0.257397
vn -0.315544 0.913113 0.258181
vn -0.315544 0.913113 0.258181
vn -0.296296 0.919758 0.257397
vn -0.316499 0.912773 0.258214
vn -0.311425 0.914110 -0.259647
vn -0.311521 0.914082 -0.259633
vn -0.330780 0.907433 -0.259132
vn -0.330780 0.907433 -0.259132
vn -0.311521 0.914082 -0.259633
vn -0.331735 0.907093 -0.259103
vn -0.234271 0.666828 -0.707430
vn -0.234367 0.666794 -0.707431
vn -0.253584 0.660013 -0.707162
vn -0.253584 0.660013 -0.707162
vn -0.234367 0.666794 -0.707431
vn -0.254538 0.659672 -0.707137
vn -0.085412 0.244202 -0.965956
vn -0.085508 0.244169 -0.965955
vn -0.104650 0.237178 -0.965813
vn -0.104650 0.237178 -0.965813
vn -0.085508 0.244169 -0.965955
vn -0.105601 0.236827 -0.965796
vn 0.095269 -0.240529 -0.965955
vn 0.095175 -0.240566 -0.965955
vn 0.076128 -0.247810 -0.965813
vn 0.076128 -0.247810 -0.965813
vn 0.095175 -0.240566 -0.965955
vn 0.075179 -0.248168 -0.965796
vn 0.259357 -0.657478 -0.707429
vn 0.259264 -0.657517 -0.707428
vn 0.240300 -0.664975 -0.707152
vn 0.240300 -0.664975 -0.707152
vn 0.259264 -0.657517 -0.707428
vn 0.239354 -0.665339 -0.707130
vn 0.343883 -0.902549 -0.259132
vn 0.342938 -0.902916 -0.259108
vn 0.333883 -0.906382 -0.258830
vn 0.333883 -0.906382 -0.258830
vn 0.342938 -0.902916 -0.259108
vn 0.333882 -0.906381 -0.258836
vn 0.359119 -0.896870 0.258181
vn 0.358174 -0.897236 0.258224
vn 0.349120 -0.900702 0.258557
vn 0.349120 -0.900702 0.258557
vn 0.358174 -0.897236 0.258224
vn 0.349120 -0.900699 0.258566
vn 0.281927 -0.649464 0.706196
vn 0.280982 -0.649827 0.706239
vn 0.271921 -0.653272 0.706608
vn 0.271921 -0.653272 0.706608
vn 0.280982 -0.649827 0.706239
vn 0.271921 -0.653271 0.706608
vn 0.132987 -0.226610 0.964864
vn 0.132040 -0.226968 0.964910
vn 0.122966 -0.230375 0.965301
vn 0.122966 -0.230375 0.965301
vn 0.132040 -0.226968 0.964910
vn 0.122966 -0.230376 0.965301
vn -0.047786 0.258367 0.964864
vn -0.048737 0.258019 0.964910
vn -0.057828 0.254657 0.965301
vn -0.057828 0.254657 0.965301
vn -0.048737 0.258019 0.964910
vn -0.057829 0.254659 0.965300
vn -0.211960 0.675537 0.706204
vn -0.212913 0.675192 0.706246
vn -0.222018 0.671866 0.706615
vn -0.222018 0.671866 0.706615
vn -0.212913 0.675192 0.706246
vn -0.222017 0.671865 0.706616
vn -0.315544 0.913113 0.258181
vn -0.316499 0.912773 0.258214
vn -0.325613 0.909469 0.258540
vn -0.325613 0.909469 0.258540
vn -0.316499 0.912773 0.258214
vn -0.325614 0.909469 0.258537
vn -0.330780 0.907433 -0.259132
vn -0.331735 0.907093 -0.259103
vn -0.340850 0.903788 -0.258822
vn -0.340850 0.903788 -0.258822
vn -0.331735 0.907093 -0.259103
vn -0.340850 0.903788 -0.258821
vn -0.253584 0.660013 -0.707162
vn -0.254538 0.659672 -0.707137
vn -0.263647 0.656348 -0.706893
vn -0.263647 0.656348 -0.706893
vn -0.254538 0.659672 -0.707137
vn -0.263649 0.656353 -0.706888
vn -0.104650 0.237178 -0.965813
vn -0.105601 0.236827 -0.965796
vn -0.114695 0.233460 -0.965578
vn -0.114695 0.233460 -0.965578
vn -0.105601 0.236827 -0.965796
vn -0.114695 0.233459 -0.965579
vn 0.076128 -0.247810 -0.965813
vn 0.075179 -0.248168 -0.965796
vn 0.066100 -0.251576 -0.965578
vn 0.066100 -0.251576 -0.965578
vn 0.075179 -0.248168 -0.965796
vn 0.066100 -0.251576 -0.965578
vn 0.240300 -0.664975 -0.707152
vn 0.239354 -0.665339 -0.707130
vn 0.230291 -0.668786 -0.706888
vn 0.230291 -0.668786 -0.706888
vn 0.239354 -0.665339 -0.707130
vn 0.230291 -0.668787 -0.706888
vn 0.298297 -0.641157 -0.707062
vn 0.294624 -0.642756 -0.707150
vn 0.259357 -0.657478 -0.707429
vn 0.259357 -0.657478 -0.707429
vn 0.294624 -0.642756 -0.707150
vn 0.259264 -0.657517 -0.707428
vn 0.134603 -0.225205 -0.964969
vn 0.130879 -0.226679 -0.965136
vn 0.095269 -0.240529 -0.965955
vn 0.095269 -0.240529 -0.965955
vn 0.130879 -0.226679 -0.965136
vn 0.095175 -0.240566 -0.965955
vn -0.045646 0.258364 -0.964969
vn -0.049425 0.257039 -0.965136
vn -0.085412 0.244202 -0.965956
vn -0.085412 0.244202 -0.965956
vn -0.049425 0.257039 -0.965136
vn -0.085508 0.244169 -0.965955
vn -0.194150 0.679977 -0.707062
vn -0.197974 0.678779 -0.707153
vn -0.234271 0.666828 -0.707430
vn -0.234271 0.666828 -0.707430
vn -0.197974 0.678779 -0.707153
vn -0.234367 0.666794 -0.707431
vn -0.271118 0.926666 -0.260355
vn -0.274966 0.925547 -0.260300
vn -0.311425 0.914110 -0.259647
vn -0.311425 0.914110 -0.259647
vn -0.274966 0.925547 -0.260300
vn -0.311521 0.914082 -0.259633
vn -0.255925 0.932328 0.255474
vn -0.259771 0.931212 0.255664
vn -0.296197 0.919786 0.257411
vn -0.296197 0.919786 0.257411
vn -0.259771 0.931212 0.255664
vn -0.296296 0.919758 0.257397
vn -0.152646 0.695447 0.702177
vn -0.156456 0.694252 0.702521
vn -0.192668 0.682333 0.705195
vn -0.192668 0.682333 0.705195
vn -0.156456 0.694252 0.702521
vn -0.192762 0.682297 0.705205
vn 0.011048 0.279501 0.960082
vn 0.007285 0.278182 0.960501
vn -0.028582 0.265391 0.963717
vn -0.028582 0.265391 0.963717
vn 0.007285 0.278182 0.960501
vn -0.028676 0.265355 0.963724
vn 0.191297 -0.204073 0.960083
vn 0.187591 -0.205540 0.960501
vn 0.152101 -0.219346 0.963718
vn 0.152101 -0.219346 0.963718
vn 0.187591 -0.205540 0.960501
vn 0.152008 -0.219384 0.963724
vn 0.339803 -0.625690 0.702172
vn 0.336140 -0.627284 0.702513
vn 0.300962 -0.641974 0.705189
vn 0.300962 -0.641974 0.705189
vn 0.336140 -0.627284 0.702513
vn 0.300868 -0.642010 0.705196
vn 0.416769 -0.872376 0.255469
vn 0.413132 -0.874046 0.255668
vn 0.378114 -0.889252 0.257410
vn 0.378114 -0.889252 0.257410
vn 0.413132 -0.874046 0.255668
vn 0.378022 -0.889292 0.257408
vn 0.401579 -0.878039 -0.260351
vn 0.397935 -0.879711 -0.260301
vn 0.362887 -0.894929 -0.259645
vn 0.362887 -0.894929 -0.259645
vn 0.397935 -0.879711 -0.260301
vn 0.362793 -0.894969 -0.259639
s off
g metalPart:pCylinder8
usemtl metalPart:aiFlat1SG
f 27/1/1 28/2/2 39/3/3
f 39/3/4 28/2/5 50/4/6
f 28/2/7 29/5/8 50/4/9
f 50/4/10 29/5/11 49/6/12
f 29/5/13 30/7/14 49/6/15
f 49/6/16 30/7/17 48/8/18
f 30/7/19 31/9/20 48/8/21
f 48/8/22 31/9/23 47/10/24
f 31/9/25 32/11/26 47/10/27
f 47/10/28 32/11/29 46/12/30
f 32/11/31 33/13/32 46/12/33
f 46/12/34 33/13/35 45/14/36
f 33/13/37 34/15/38 45/14/39
f 45/14/40 34/15/41 44/16/42
f 34/15/43 35/17/44 44/16/45
f 44/16/46 35/17/47 43/18/48
f 35/17/49 36/19/50 43/18/51
f 43/18/52 36/19/53 42/20/54
f 36/19/55 37/21/56 42/20/57
f 42/20/58 37/21/59 41/22/60
f 37/21/61 38/23/62 41/22/63
f 41/22/64 38/23/65 40/101/66
f 38/100/67 27/1/68 40/24/69
f 40/24/70 27/1/71 39/3/72
f 2/25/73 1/26/74 25/27/75
f 3/28/76 2/25/77 25/27/78
f 4/29/79 3/28/80 25/27/81
f 5/30/82 4/29/83 25/27/84
f 6/31/85 5/30/86 25/27/87
f 7/32/88 6/31/89 25/27/90
f 8/33/91 7/32/92 25/27/93
f 9/34/94 8/33/95 25/27/96
f 10/35/97 9/34/98 25/27/99
f 11/36/100 10/35/101 25/27/102
f 12/37/103 11/36/104 25/27/105
f 1/26/106 12/37/107 25/27/108
f 13/38/109 14/39/110 26/40/111
f 14/39/112 15/41/113 26/40/114
f 15/41/115 16/42/116 26/40/117
f 16/42/118 17/43/119 26/40/120
f 17/43/121 18/44/122 26/40/123
f 18/44/124 19/45/125 26/40/126
f 19/45/127 20/46/128 26/40/129
f 20/46/130 21/47/131 26/40/132
f 21/47/133 22/48/134 26/40/135
f 22/48/136 23/49/137 26/40/138
f 23/49/139 24/50/140 26/40/141
f 24/50/142 13/38/143 26/40/144
f 1/51/145 2/52/146 27/1/147
f 27/1/148 2/52/149 28/2/150
f 2/52/151 3/53/152 28/2/153
f 28/2/154 3/53/155 29/5/156
f 3/53/157 4/54/158 29/5/159
f 29/5/160 4/54/161 30/7/162
f 4/54/163 5/55/164 30/7/165
f 30/7/166 5/55/167 31/9/168
f 5/55/169 6/56/170 31/9/171
f 31/9/172 6/56/173 32/11/174
f 6/56/175 7/57/176 32/11/177
f 32/11/178 7/57/179 33/13/180
f 7/57/181 8/58/182 33/13/183
f 33/13/184 8/58/185 34/15/186
f 8/58/187 9/59/188 34/15/189
f 34/15/190 9/59/191 35/17/192
f 9/59/193 10/60/194 35/17/195
f 35/17/196 10/60/197 36/19/198
f 10/60/199 11/61/200 36/19/201
f 36/19/202 11/61/203 37/21/204
f 11/61/205 12/62/206 37/21/207
f 37/21/208 12/62/209 38/23/210
f 12/62/211 1/99/212 38/23/213
f 38/100/214 1/51/215 27/1/216
f 74/63/217 63/64/218 52/65/219
f 52/65/220 63/64/221 51/66/222
f 73/67/223 74/102/224 53/68/225
f 53/68/226 74/102/227 52/103/228
f 72/69/229 73/67/230 54/70/231
f 54/70/232 73/67/233 53/68/234
f 71/71/235 72/69/236 55/72/237
f 55/72/238 72/69/239 54/70/240
f 70/73/241 71/71/242 56/74/243
f 56/74/244 71/71/245 55/72/246
f 69/75/247 70/73/248 57/76/249
f 57/76/250 70/73/251 56/74/252
f 68/77/253 69/75/254 58/78/255
f 58/78/256 69/75/257 57/76/258
f 67/79/259 68/77/260 59/80/261
f 59/80/262 68/77/263 58/78/264
f 66/81/265 67/79/266 60/82/267
f 60/82/268 67/79/269 59/80/270
f 65/83/271 66/81/272 61/84/273
f 61/84/274 66/81/275 60/82/276
f 64/85/277 65/83/278 62/86/279
f 62/86/280 65/83/281 61/84/282
f 63/64/283 64/85/284 51/66/285
f 51/66/286 64/85/287 62/86/288
f 52/65/289 51/66/290 24/87/291
f 24/87/292 51/66/293 13/88/294
f 53/68/295 52/103/296 23/89/297
f 23/104/298 52/65/299 24/87/300
f 54/70/301 53/68/302 22/90/303
f 22/90/304 53/68/305 23/89/306
f 55/72/307 54/70/308 21/91/309
f 21/91/310 54/70/311 22/90/312
f 56/74/313 55/72/314 20/92/315
f 20/92/316 55/72/317 21/91/318
f 57/76/319 56/74/320 19/93/321
f 19/93/322 56/74/323 20/92/324
f 58/78/325 57/76/326 18/94/327
f 18/94/328 57/76/329 19/93/330
f 59/80/331 58/78/332 17/95/333
f 17/95/334 58/78/335 18/94/336
f 60/82/337 59/80/338 16/96/339
f 16/96/340 59/80/341 17/95/342
f 61/84/343 60/82/344 15/97/345
f 15/97/346 60/82/347 16/96/348
f 62/86/349 61/84/350 14/98/351
f 14/98/352 61/84/353 15/97/354
f 51/66/355 62/86/356 13/88/357
f 13/88/358 62/86/359 14/98/360
f 39/3/361 50/4/362 63/64/363
f 63/64/364 50/4/365 64/85/366
f 50/4/367 49/6/368 64/85/369
f 64/85/370 49/6/371 65/83/372
f 49/6/373 48/8/374 65/83/375
f 65/83/376 48/8/377 66/81/378
f 48/8/379 47/10/380 66/81/381
f 66/81/382 47/10/383 67/79/384
f 47/10/385 46/12/386 67/79/387
f 67/79/388 46/12/389 68/77/390
f 46/12/391 45/14/392 68/77/393
f 68/77/394 45/14/395 69/75/396
f 45/14/397 44/16/398 69/75/399
f 69/75/400 44/16/401 70/73/402
f 44/16/403 43/18/404 70/73/405
f 70/73/406 43/18/407 71/71/408
f 43/18/409 42/20/410 71/71/411
f 71/71/412 42/20/413 72/69/414
f 42/20/415 41/22/416 72/69/417
f 72/69/418 41/22/419 73/67/420
f 41/22/421 40/101/422 73/67/423
f 73/67/424 40/101/425 74/102/426
f 40/24/427 39/3/428 74/63/429
f 74/63/430 39/3/431 63/64/432
