# This file uses centimeters as units for non-parametric coordinates.

mtllib Switch.mtl
g default
v 2.284104 1.492556 -0.335323
v 2.284104 1.146259 -0.530179
v 2.284104 0.763605 -0.423095
v 2.284104 0.568749 -0.076798
v 2.284104 0.675833 0.305855
v 2.284104 1.022130 0.500712
v 2.284104 1.404784 0.393628
v 2.284104 1.599640 0.047331
v 1.867212 1.492556 -0.335323
v 1.867212 1.146259 -0.530179
v 1.867212 0.763605 -0.423095
v 1.867212 0.568749 -0.076798
v 1.867212 0.675833 0.305855
v 1.867212 1.022130 0.500712
v 1.867212 1.404784 0.393628
v 1.867212 1.599640 0.047331
v 2.284104 1.084194 -0.014734
v 1.867212 1.084194 -0.014734
vt 0.457045 0.882443
vt 0.422122 0.867919
vt 0.387154 0.882352
vt 0.372642 0.917287
vt 0.387085 0.952244
vt 0.422009 0.966745
vt 0.456955 0.952313
vt 0.471471 0.917400
vt 0.346736 0.962535
vt 0.314978 0.962540
vt 0.280716 0.962545
vt 0.246127 0.962549
vt 0.211373 0.962554
vt 0.175873 0.962559
vt 0.140580 0.962564
vt 0.105639 0.962569
vt 0.071384 0.962574
vt 0.346731 0.926506
vt 0.314973 0.926510
vt 0.280711 0.926515
vt 0.246122 0.926520
vt 0.211368 0.926525
vt 0.175868 0.926530
vt 0.140575 0.926535
vt 0.105634 0.926540
vt 0.071379 0.926545
vt 0.561127 0.883230
vt 0.526208 0.868697
vt 0.491236 0.883122
vt 0.476716 0.918054
vt 0.491151 0.953015
vt 0.526072 0.967524
vt 0.561021 0.953099
vt 0.575544 0.918190
vt 0.422053 0.917330
vt 0.526127 0.918109
vn 0.000000 0.490385 -0.871506
vn 0.000000 0.490385 -0.871506
vn 0.000000 0.490385 -0.871506
vn 0.000000 0.490385 -0.871506
vn -0.000000 -0.269493 -0.963002
vn -0.000000 -0.269493 -0.963002
vn -0.000000 -0.269493 -0.963002
vn -0.000000 -0.269493 -0.963002
vn -0.000000 -0.871506 -0.490385
vn -0.000000 -0.871506 -0.490385
vn -0.000000 -0.871506 -0.490385
vn -0.000000 -0.871506 -0.490385
vn 0.000000 -0.963002 0.269493
vn 0.000000 -0.963002 0.269493
vn 0.000000 -0.963002 0.269493
vn 0.000000 -0.963002 0.269493
vn 0.000000 -0.490385 0.871506
vn 0.000000 -0.490385 0.871506
vn 0.000000 -0.490385 0.871506
vn 0.000000 -0.490385 0.871506
vn 0.000000 0.269493 0.963002
vn 0.000000 0.269493 0.963002
vn 0.000000 0.269493 0.963002
vn 0.000000 0.269493 0.963002
vn 0.000000 0.871506 0.490385
vn 0.000000 0.871506 0.490385
vn 0.000000 0.871506 0.490385
vn 0.000000 0.871506 0.490385
vn 0.000000 0.963002 -0.269493
vn 0.000000 0.963002 -0.269493
vn 0.000000 0.963002 -0.269493
vn 0.000000 0.963002 -0.269493
vn 1.000000 -0.000000 0.000000
vn 1.000000 0.000000 -0.000000
vn 1.000000 0.000000 -0.000000
vn 1.000000 0.000000 -0.000000
vn 1.000000 -0.000000 0.000000
vn 1.000000 -0.000000 0.000000
vn 1.000000 -0.000000 0.000000
vn 1.000000 -0.000000 0.000000
vn 1.000000 0.000000 -0.000000
vn -1.000000 0.000000 -0.000000
vn -1.000000 0.000000 -0.000000
vn -1.000000 -0.000000 0.000000
vn -1.000000 0.000000 -0.000000
vn -1.000000 0.000000 -0.000000
vn -1.000000 0.000000 -0.000000
vn -1.000000 0.000000 -0.000000
vn -1.000000 -0.000000 0.000000
vn -1.000000 -0.000000 0.000000
s 1
g Radio:pCylinder1
usemtl aiFlat1SG
f 1/9/1 2/10/2 9/18/3
f 9/18/3 2/10/2 10/19/4
s 2
f 2/10/5 3/11/6 10/19/7
f 10/19/7 3/11/6 11/20/8
s 3
f 3/11/9 4/12/10 11/20/11
f 11/20/11 4/12/10 12/21/12
s 4
f 4/12/13 5/13/14 12/21/15
f 12/21/15 5/13/14 13/22/16
s 5
f 5/13/17 6/14/18 13/22/19
f 13/22/19 6/14/18 14/23/20
s 6
f 6/14/21 7/15/22 14/23/23
f 14/23/23 7/15/22 15/24/24
s 7
f 7/15/25 8/16/26 15/24/27
f 15/24/27 8/16/26 16/25/28
s 8
f 8/16/29 1/17/30 16/25/31
f 16/25/31 1/17/30 9/26/32
s 9
f 2/2/33 1/1/34 17/35/35
f 3/3/36 2/2/33 17/35/35
f 4/4/37 3/3/36 17/35/35
f 5/5/38 4/4/37 17/35/35
f 6/6/39 5/5/38 17/35/35
f 7/7/40 6/6/39 17/35/35
f 8/8/41 7/7/40 17/35/35
f 1/1/34 8/8/41 17/35/35
s 10
f 9/33/42 10/32/43 18/36/44
f 10/32/43 11/31/45 18/36/44
f 11/31/45 12/30/46 18/36/44
f 12/30/46 13/29/47 18/36/44
f 13/29/47 14/28/48 18/36/44
f 14/28/48 15/27/49 18/36/44
f 15/27/49 16/34/50 18/36/44
f 16/34/50 9/33/42 18/36/44
